<svg width="52" height="52" viewBox="0 0 52 52" fill="none" xmlns="http://www.w3.org/2000/svg">
<path d="M43.875 0H8.125C3.63769 0 0 3.63769 0 8.125V43.875C0 48.3623 3.63769 52 8.125 52H43.875C48.3623 52 52 48.3623 52 43.875V8.125C52 3.63769 48.3623 0 43.875 0Z" fill="#06C755"/>
<path d="M25.5664 10.3999C16.7264 10.3999 9.5332 16.1946 9.5332 23.3173C9.5332 29.7028 15.2372 35.0504 22.9421 36.0617C23.4643 36.1733 24.175 36.4034 24.3548 36.8465C24.5164 37.249 24.4605 37.8794 24.4064 38.2859C24.4064 38.2859 24.2183 39.4091 24.1777 39.6483C24.108 40.0508 23.8556 41.2223 25.5664 40.5064C27.2778 39.7905 34.8001 35.1087 38.1639 31.2648C40.4869 28.7351 41.5999 26.168 41.5999 23.3173C41.5999 16.1946 34.4076 10.3999 25.5664 10.3999Z" fill="white"/>
<path d="M21.1095 19.9331C20.9387 19.9331 20.7998 20.0765 20.7998 20.2526V27.4136C20.7998 27.5901 20.9387 27.7331 21.1095 27.7331H22.2237C22.3946 27.7331 22.5331 27.5901 22.5331 27.4136V20.2526C22.5331 20.0765 22.3946 19.9331 22.2237 19.9331H21.1095Z" fill="#06C755"/>
<path d="M30.007 19.9331H28.8341C28.6542 19.9331 28.5084 20.0765 28.5084 20.2526V24.507L25.1693 20.0752C25.1616 20.0639 25.1529 20.0531 25.144 20.0427L25.1417 20.0409C25.1353 20.0336 25.1289 20.0273 25.1222 20.021C25.1202 20.0191 25.1183 20.0175 25.1161 20.0156C25.1106 20.0106 25.1049 20.0059 25.0988 20.0015C25.0962 19.999 25.0933 19.9971 25.0904 19.9949C25.0847 19.9911 25.0792 19.987 25.0734 19.9835C25.0702 19.9813 25.067 19.9794 25.0635 19.9778C25.0577 19.9744 25.052 19.9709 25.0462 19.9681C25.0427 19.9665 25.0395 19.9646 25.0359 19.9634C25.0298 19.9605 25.0238 19.9577 25.0173 19.9555C25.0135 19.9542 25.0103 19.953 25.0068 19.9517C25.0004 19.9495 24.9939 19.9473 24.9872 19.9457C24.9837 19.9444 24.9798 19.9438 24.976 19.9426C24.9696 19.9413 24.9635 19.9397 24.9574 19.9385C24.9529 19.9378 24.9481 19.9372 24.9436 19.9369C24.9378 19.9356 24.9321 19.9353 24.9263 19.9347C24.9208 19.9341 24.9154 19.9341 24.9096 19.9337C24.9055 19.9337 24.9023 19.9331 24.8981 19.9331H23.7254C23.5456 19.9331 23.3994 20.0765 23.3994 20.2526V27.4136C23.3994 27.5901 23.5456 27.7331 23.7254 27.7331H24.8981C25.0783 27.7331 25.2241 27.5901 25.2241 27.4136V23.1605L28.5674 27.5979C28.5904 27.6301 28.619 27.6562 28.6501 27.677C28.651 27.6777 28.6523 27.6786 28.6533 27.6795C28.66 27.6836 28.6667 27.6877 28.6735 27.6915C28.6767 27.6934 28.6796 27.6947 28.6828 27.6962C28.6876 27.6991 28.693 27.7016 28.6982 27.7038C28.7036 27.706 28.7084 27.7082 28.7142 27.7104C28.7174 27.7117 28.7206 27.7129 28.7238 27.7139C28.7315 27.7167 28.7385 27.7189 28.7459 27.7211C28.7475 27.7211 28.7491 27.7218 28.7507 27.7221C28.7773 27.729 28.8052 27.7331 28.8341 27.7331H30.007C30.1872 27.7331 30.3327 27.5901 30.3327 27.4136V20.2526C30.3327 20.0765 30.1872 19.9331 30.007 19.9331Z" fill="#06C755"/>
<path d="M19.6167 25.9399H16.5111V20.2532C16.5111 20.0764 16.369 19.9331 16.194 19.9331H15.0508C14.8755 19.9331 14.7334 20.0764 14.7334 20.2532V27.4127V27.4133C14.7334 27.4993 14.7674 27.5772 14.8221 27.6345C14.8234 27.6361 14.8246 27.6377 14.8265 27.6392C14.828 27.6408 14.8296 27.6421 14.8312 27.6436C14.8883 27.6991 14.9652 27.7331 15.0505 27.7331H19.6167C19.7919 27.7331 19.9334 27.5894 19.9334 27.4127V26.26C19.9334 26.0833 19.7919 25.9399 19.6167 25.9399Z" fill="#06C755"/>
<path d="M36.0835 21.7263C36.2587 21.7263 36.4002 21.5833 36.4002 21.4062V20.2535C36.4002 20.0768 36.2587 19.9331 36.0835 19.9331H31.5176H31.5169C31.4313 19.9331 31.3542 19.9678 31.297 20.0235C31.2958 20.0248 31.2942 20.0257 31.2933 20.027C31.2914 20.0289 31.2898 20.0308 31.2883 20.0327C31.2339 20.09 31.2002 20.1675 31.2002 20.2532V20.2535V27.413V27.4133C31.2002 27.4993 31.2342 27.5772 31.2889 27.6345C31.2902 27.6361 31.2917 27.638 31.2933 27.6392C31.2945 27.6408 31.2964 27.6424 31.298 27.6436C31.3548 27.6988 31.432 27.7331 31.5169 27.7331H36.0835C36.2587 27.7331 36.4002 27.5894 36.4002 27.413V26.26C36.4002 26.0836 36.2587 25.9399 36.0835 25.9399H32.9782V24.7295H36.0835C36.2587 24.7295 36.4002 24.5862 36.4002 24.4095V23.2567C36.4002 23.08 36.2587 22.9364 36.0835 22.9364H32.9782V21.7263H36.0835Z" fill="#06C755"/>
</svg>
