<svg width="52" height="52" viewBox="0 0 52 52" fill="none" xmlns="http://www.w3.org/2000/svg">
<path d="M43.875 0H8.125C3.63769 0 0 3.63769 0 8.125V43.875C0 48.3623 3.63769 52 8.125 52H43.875C48.3623 52 52 48.3623 52 43.875V8.125C52 3.63769 48.3623 0 43.875 0Z" fill="#1877F2"/>
<path d="M33.9609 28.2207L34.883 22.2082H29.1143V18.3082C29.1143 16.6629 29.9187 15.0582 32.5024 15.0582H35.1268V9.93945C35.1268 9.93945 32.7462 9.5332 30.4712 9.5332C25.7181 9.5332 22.6143 12.4135 22.6143 17.6257V22.2082H17.333V28.2207H22.6143V42.7564C23.6746 42.9229 24.7593 43.0082 25.8643 43.0082C26.9693 43.0082 28.054 42.9229 29.1143 42.7564V28.2207H33.9609Z" fill="white"/>
</svg>
