<svg width="52" height="52" viewBox="0 0 52 52" fill="none" xmlns="http://www.w3.org/2000/svg">
<path d="M43.875 0H8.125C3.63769 0 0 3.63769 0 8.125V43.875C0 48.3623 3.63769 52 8.125 52H43.875C48.3623 52 52 48.3623 52 43.875V8.125C52 3.63769 48.3623 0 43.875 0Z" fill="black"/>
<g clip-path="url(#clip0_285_1084)">
<path d="M28.2 24.7697L36.0819 15.6001H34.2142L27.3703 23.562L21.9042 15.6001H15.5996L23.8655 27.6399L15.5996 37.2556H17.4675L24.6947 28.8476L30.4674 37.2556H36.772L28.1996 24.7697H28.2ZM25.6418 27.7459L24.8042 26.547L18.1405 17.0074H21.0094L26.3871 24.7062L27.2247 25.9051L34.2151 35.9124H31.3461L25.6418 27.7464V27.7459Z" fill="white"/>
</g>
<defs>
<clipPath id="clip0_285_1084">
<rect width="21.1724" height="21.6667" fill="white" transform="translate(15.5996 15.6001)"/>
</clipPath>
</defs>
</svg>
